<?plantuml 1.2026.2?><svg xmlns="http://www.w3.org/2000/svg" xmlns:xlink="http://www.w3.org/1999/xlink" contentStyleType="text/css" data-diagram-type="SEQUENCE" height="980.2519px" preserveAspectRatio="none" style="width:910px;height:980px;background:#0D1117;" version="1.1" viewBox="0 0 910 980" width="910.8578px" zoomAndPan="magnify"><title>PGRWL &#8212; Stream Mode (WAL, Basebackup, Retention)</title><defs/><g><rect fill="#0D1117" height="980.2519" style="stroke:none;stroke-width:0.4853;" width="910.8578" x="0" y="0"/><rect fill="none" height="979.0295" rx="1.4558" ry="1.4558" style="stroke:#30363D;stroke-width:0.9705;" width="909.577" x="0" y="0"/><rect fill="none" height="24.681" rx="1.4558" ry="1.4558" style="stroke:#6E7681;stroke-width:0.9705;" width="397.1812" x="254.9847" y="15.2522"/><text fill="#E6EDF3" font-family="'Verdana'" font-size="14.5582" font-weight="bold" lengthAdjust="spacing" textLength="392.3284" x="257.4111" y="33.2413">PGRWL &#8212; Stream Mode (WAL, Basebackup, Retention)</text><rect fill="#0A1628" height="922.8735" rx="1.4558" ry="1.4558" style="stroke:#58A6FF;stroke-width:0.2426;" width="83.6043" x="10.1907" y="43.3301"/><text fill="#A5D6FF" font-family="'Verdana'" font-size="8.7349" font-weight="bold" lengthAdjust="spacing" textLength="80.6927" x="11.6466" y="52.6677">PostgreSQL Server</text><rect fill="#0D1117" height="922.8735" rx="1.4558" ry="1.4558" style="stroke:#58A6FF;stroke-width:0.2426;" width="632.8368" x="118.9184" y="43.3301"/><text fill="#A5D6FF" font-family="'Verdana'" font-size="8.7349" font-weight="bold" lengthAdjust="spacing" textLength="91.4191" x="389.6273" y="52.6677">PGRWL Stream Mode</text><rect fill="#0A1628" height="922.8735" rx="1.4558" ry="1.4558" style="stroke:#58A6FF;stroke-width:0.2426;" width="125.3085" x="772.1367" y="43.3301"/><text fill="#A5D6FF" font-family="'Verdana'" font-size="8.7349" font-weight="bold" lengthAdjust="spacing" textLength="33.9437" x="817.8191" y="52.6677">Storage</text><g class="participant-lifeline" data-entity-uid="part1" data-qualified-name="PG" id="part1-lifeline"><g><title>PostgreSQL</title><rect fill="#000000" fill-opacity="0.00000" height="815.347" width="3.8822" x="50.0518" y="103.2844"/><line style="stroke:#6E7681;stroke-width:0.2426;stroke-dasharray:2.4264,2.4264;" x1="51.7679" x2="51.7679" y1="103.2844" y2="918.6315"/></g></g><g class="participant-lifeline" data-entity-uid="part2" data-qualified-name="Receiver" id="part2-lifeline"><g><title>WAL Receiver</title><rect fill="#000000" fill-opacity="0.00000" height="815.347" width="3.8822" x="159.6492" y="103.2844"/><line style="stroke:#6E7681;stroke-width:0.2426;stroke-dasharray:2.4264,2.4264;" x1="161.1372" x2="161.1372" y1="103.2844" y2="918.6315"/></g></g><g class="participant-lifeline" data-entity-uid="part3" data-qualified-name="ArchiveSupervisor" id="part3-lifeline"><g><title>Archive Supervisor</title><rect fill="#000000" fill-opacity="0.00000" height="815.347" width="3.8822" x="273.4189" y="103.2844"/><line style="stroke:#6E7681;stroke-width:0.2426;stroke-dasharray:2.4264,2.4264;" x1="274.9439" x2="274.9439" y1="103.2844" y2="918.6315"/></g></g><g class="participant-lifeline" data-entity-uid="part4" data-qualified-name="Uploader" id="part4-lifeline"><g><title>WAL Uploader</title><rect fill="#000000" fill-opacity="0.00000" height="815.347" width="3.8822" x="388.5911" y="103.2844"/><line style="stroke:#6E7681;stroke-width:0.2426;stroke-dasharray:2.4264,2.4264;" x1="390.3212" x2="390.3212" y1="103.2844" y2="918.6315"/></g></g><g class="participant-lifeline" data-entity-uid="part5" data-qualified-name="BackupSupervisor" id="part5-lifeline"><g><title>Basebackup Supervisor</title><rect fill="#000000" fill-opacity="0.00000" height="815.347" width="3.8822" x="496.8385" y="103.2844"/><line style="stroke:#6E7681;stroke-width:0.2426;stroke-dasharray:2.4264,2.4264;" x1="498.4737" x2="498.4737" y1="103.2844" y2="918.6315"/></g></g><g class="participant-lifeline" data-entity-uid="part6" data-qualified-name="Retention" id="part6-lifeline"><g><title>Retention Manager</title><rect fill="#000000" fill-opacity="0.00000" height="815.347" width="3.8822" x="615.3713" y="103.2844"/><line style="stroke:#6E7681;stroke-width:0.2426;stroke-dasharray:2.4264,2.4264;" x1="617.0069" x2="617.0069" y1="103.2844" y2="918.6315"/></g></g><g class="participant-lifeline" data-entity-uid="part7" data-qualified-name="API" id="part7-lifeline"><g><title>HTTP API</title><rect fill="#000000" fill-opacity="0.00000" height="815.347" width="3.8822" x="715.9863" y="103.2844"/><line style="stroke:#6E7681;stroke-width:0.2426;stroke-dasharray:2.4264,2.4264;" x1="717.5835" x2="717.5835" y1="103.2844" y2="918.6315"/></g></g><g class="participant-lifeline" data-entity-uid="part8" data-qualified-name="Storage" id="part8-lifeline"><g><title>Object Storage . SFTP . Local</title><rect fill="#000000" fill-opacity="0.00000" height="815.347" width="3.8822" x="832.8498" y="103.2844"/><line style="stroke:#6E7681;stroke-width:0.2426;stroke-dasharray:2.4264,2.4264;" x1="834.7369" x2="834.7369" y1="103.2844" y2="918.6315"/></g></g><g class="participant participant-head" data-entity-uid="part1" data-qualified-name="PG" id="part1-head"><text fill="#A5D6FF" font-family="'Verdana'" font-size="8.7349" lengthAdjust="spacing" textLength="48.0068" x="26.5337" y="100.7251">PostgreSQL</text><path d="M43.258,73.9177 C43.258,69.065 51.9929,69.065 51.9929,69.065 C51.9929,69.065 60.7278,69.065 60.7278,73.9177 L60.7278,86.5348 C60.7278,91.3875 51.9929,91.3875 51.9929,91.3875 C51.9929,91.3875 43.258,91.3875 43.258,86.5348 L43.258,73.9177" fill="#161B22" style="stroke:#79C0FF;stroke-width:0.2426;"/><path d="M43.258,73.9177 C43.258,78.7704 51.9929,78.7704 51.9929,78.7704 C51.9929,78.7704 60.7278,78.7704 60.7278,73.9177" fill="none" style="stroke:#79C0FF;stroke-width:0.2426;"/></g><g class="participant participant-tail" data-entity-uid="part1" data-qualified-name="PG" id="part1-tail"><text fill="#A5D6FF" font-family="'Verdana'" font-size="8.7349" lengthAdjust="spacing" textLength="48.0068" x="26.5337" y="927.4838">PostgreSQL</text><path d="M43.258,934.8958 C43.258,930.0431 51.9929,930.0431 51.9929,930.0431 C51.9929,930.0431 60.7278,930.0431 60.7278,934.8958 L60.7278,947.5129 C60.7278,952.3656 51.9929,952.3656 51.9929,952.3656 C51.9929,952.3656 43.258,952.3656 43.258,947.5129 L43.258,934.8958" fill="#161B22" style="stroke:#79C0FF;stroke-width:0.2426;"/><path d="M43.258,934.8958 C43.258,939.7485 51.9929,939.7485 51.9929,939.7485 C51.9929,939.7485 60.7278,939.7485 60.7278,934.8958" fill="none" style="stroke:#79C0FF;stroke-width:0.2426;"/></g><g class="participant participant-head" data-entity-uid="part2" data-qualified-name="Receiver" id="part2-head"><rect fill="#161B22" height="18.6907" rx="1.4558" ry="1.4558" style="stroke:#768390;stroke-width:0.2426;" width="62.0506" x="130.565" y="84.1084"/><text fill="#E6EDF3" font-family="'Verdana'" font-size="8.7349" lengthAdjust="spacing" textLength="55.2567" x="133.9619" y="96.8429">WAL Receiver</text></g><g class="participant participant-tail" data-entity-uid="part2" data-qualified-name="Receiver" id="part2-tail"><rect fill="#161B22" height="18.6907" rx="1.4558" ry="1.4558" style="stroke:#768390;stroke-width:0.2426;" width="62.0506" x="130.565" y="918.1462"/><text fill="#E6EDF3" font-family="'Verdana'" font-size="8.7349" lengthAdjust="spacing" textLength="55.2567" x="133.9619" y="930.8807">WAL Receiver</text></g><g class="participant participant-head" data-entity-uid="part3" data-qualified-name="ArchiveSupervisor" id="part3-head"><rect fill="#161B22" height="18.6907" rx="1.4558" ry="1.4558" style="stroke:#768390;stroke-width:0.2426;" width="83.3287" x="233.6956" y="84.1084"/><text fill="#E6EDF3" font-family="'Verdana'" font-size="8.7349" lengthAdjust="spacing" textLength="76.5349" x="237.0926" y="96.8429">Archive Supervisor</text></g><g class="participant participant-tail" data-entity-uid="part3" data-qualified-name="ArchiveSupervisor" id="part3-tail"><rect fill="#161B22" height="18.6907" rx="1.4558" ry="1.4558" style="stroke:#768390;stroke-width:0.2426;" width="83.3287" x="233.6956" y="918.1462"/><text fill="#E6EDF3" font-family="'Verdana'" font-size="8.7349" lengthAdjust="spacing" textLength="76.5349" x="237.0926" y="930.8807">Archive Supervisor</text></g><g class="participant participant-head" data-entity-uid="part4" data-qualified-name="Uploader" id="part4-head"><rect fill="#161B22" height="18.6907" rx="1.4558" ry="1.4558" style="stroke:#768390;stroke-width:0.2426;" width="65.4484" x="357.8079" y="84.1084"/><text fill="#E6EDF3" font-family="'Verdana'" font-size="8.7349" lengthAdjust="spacing" textLength="58.6546" x="361.2048" y="96.8429">WAL Uploader</text></g><g class="participant participant-tail" data-entity-uid="part4" data-qualified-name="Uploader" id="part4-tail"><rect fill="#161B22" height="18.6907" rx="1.4558" ry="1.4558" style="stroke:#768390;stroke-width:0.2426;" width="65.4484" x="357.8079" y="918.1462"/><text fill="#E6EDF3" font-family="'Verdana'" font-size="8.7349" lengthAdjust="spacing" textLength="58.6546" x="361.2048" y="930.8807">WAL Uploader</text></g><g class="participant participant-head" data-entity-uid="part5" data-qualified-name="BackupSupervisor" id="part5-head"><rect fill="#161B22" height="18.6907" rx="1.4558" ry="1.4558" style="stroke:#768390;stroke-width:0.2426;" width="102.5192" x="447.52" y="84.1084"/><text fill="#E6EDF3" font-family="'Verdana'" font-size="8.7349" lengthAdjust="spacing" textLength="95.7254" x="450.9169" y="96.8429">Basebackup Supervisor</text></g><g class="participant participant-tail" data-entity-uid="part5" data-qualified-name="BackupSupervisor" id="part5-tail"><rect fill="#161B22" height="18.6907" rx="1.4558" ry="1.4558" style="stroke:#768390;stroke-width:0.2426;" width="102.5192" x="447.52" y="918.1462"/><text fill="#E6EDF3" font-family="'Verdana'" font-size="8.7349" lengthAdjust="spacing" textLength="95.7254" x="450.9169" y="930.8807">Basebackup Supervisor</text></g><g class="participant participant-head" data-entity-uid="part6" data-qualified-name="Retention" id="part6-head"><rect fill="#161B22" height="18.6907" rx="1.4558" ry="1.4558" style="stroke:#768390;stroke-width:0.2426;" width="86.019" x="574.3029" y="84.1084"/><text fill="#E6EDF3" font-family="'Verdana'" font-size="8.7349" lengthAdjust="spacing" textLength="79.2252" x="577.6998" y="96.8429">Retention Manager</text></g><g class="participant participant-tail" data-entity-uid="part6" data-qualified-name="Retention" id="part6-tail"><rect fill="#161B22" height="18.6907" rx="1.4558" ry="1.4558" style="stroke:#768390;stroke-width:0.2426;" width="86.019" x="574.3029" y="918.1462"/><text fill="#E6EDF3" font-family="'Verdana'" font-size="8.7349" lengthAdjust="spacing" textLength="79.2252" x="577.6998" y="930.8807">Retention Manager</text></g><g class="participant participant-head" data-entity-uid="part7" data-qualified-name="API" id="part7-head"><rect fill="#161B22" height="18.6907" rx="1.4558" ry="1.4558" style="stroke:#768390;stroke-width:0.2426;" width="44.3625" x="695.7462" y="84.1084"/><text fill="#E6EDF3" font-family="'Verdana'" font-size="8.7349" lengthAdjust="spacing" textLength="37.5687" x="699.1431" y="96.8429">HTTP API</text></g><g class="participant participant-tail" data-entity-uid="part7" data-qualified-name="API" id="part7-tail"><rect fill="#161B22" height="18.6907" rx="1.4558" ry="1.4558" style="stroke:#768390;stroke-width:0.2426;" width="44.3625" x="695.7462" y="918.1462"/><text fill="#E6EDF3" font-family="'Verdana'" font-size="8.7349" lengthAdjust="spacing" textLength="37.5687" x="699.1431" y="930.8807">HTTP API</text></g><g class="participant participant-head" data-entity-uid="part8" data-qualified-name="Storage" id="part8-head"><text fill="#A5D6FF" font-family="'Verdana'" font-size="8.7349" lengthAdjust="spacing" textLength="117.2918" x="774.6892" y="88.8282">Object Storage / SFTP / Local</text><text fill="#A5D6FF" font-family="'Verdana'" font-size="8.7349" lengthAdjust="spacing" textLength="118.5146" x="774.0778" y="100.7251">(WAL archive + basebackups)</text><path d="M826.056,62.0208 C826.056,57.1681 834.7909,57.1681 834.7909,57.1681 C834.7909,57.1681 843.5258,57.1681 843.5258,62.0208 L843.5258,74.6379 C843.5258,79.4906 834.7909,79.4906 834.7909,79.4906 C834.7909,79.4906 826.056,79.4906 826.056,74.6379 L826.056,62.0208" fill="#161B22" style="stroke:#79C0FF;stroke-width:0.2426;"/><path d="M826.056,62.0208 C826.056,66.8735 834.7909,66.8735 834.7909,66.8735 C834.7909,66.8735 843.5258,66.8735 843.5258,62.0208" fill="none" style="stroke:#79C0FF;stroke-width:0.2426;"/></g><g class="participant participant-tail" data-entity-uid="part8" data-qualified-name="Storage" id="part8-tail"><text fill="#A5D6FF" font-family="'Verdana'" font-size="8.7349" lengthAdjust="spacing" textLength="117.2918" x="774.6892" y="927.4838">Object Storage / SFTP / Local</text><text fill="#A5D6FF" font-family="'Verdana'" font-size="8.7349" lengthAdjust="spacing" textLength="118.5146" x="774.0778" y="939.3806">(WAL archive + basebackups)</text><path d="M826.056,946.7927 C826.056,941.94 834.7909,941.94 834.7909,941.94 C834.7909,941.94 843.5258,941.94 843.5258,946.7927 L843.5258,959.4098 C843.5258,964.2625 834.7909,964.2625 834.7909,964.2625 C834.7909,964.2625 826.056,964.2625 826.056,959.4098 L826.056,946.7927" fill="#161B22" style="stroke:#79C0FF;stroke-width:0.2426;"/><path d="M826.056,946.7927 C826.056,951.6454 834.7909,951.6454 834.7909,951.6454 C834.7909,951.6454 843.5258,951.6454 843.5258,946.7927" fill="none" style="stroke:#79C0FF;stroke-width:0.2426;"/></g><rect fill="#161B22" height="1.4558" rx="1.4558" ry="1.4558" style="stroke:#161B22;stroke-width:0.4853;" width="907.6359" x="0" y="120.3941"/><line style="stroke:#6E7681;stroke-width:0.2426;" x1="0" x2="907.6359" y1="120.3941" y2="120.3941"/><line style="stroke:#6E7681;stroke-width:0.2426;" x1="0" x2="907.6359" y1="121.85" y2="121.85"/><rect fill="#161B22" height="15.7791" rx="1.4558" ry="1.4558" style="stroke:#6E7681;stroke-width:0.4853;" width="74.4541" x="416.5909" y="112.9899"/><text fill="#C9D1D9" font-family="'Verdana'" font-size="8.7349" font-weight="bold" lengthAdjust="spacing" textLength="65.3892" x="419.5025" y="124.2685">WAL Reception</text><g class="message" data-entity-1="part2" data-entity-2="part1" id="msg1"><polygon fill="#79C0FF" points="57.3309,146.4891,52.4782,148.4302,57.3309,150.3713,55.3898,148.4302" style="stroke:#79C0FF;stroke-width:0.4853;"/><line style="stroke:#79C0FF;stroke-width:0.9705;" x1="54.4193" x2="161.105" y1="148.4302" y2="148.4302"/><text fill="#C9D1D9" font-family="'Verdana'" font-size="8.7349" lengthAdjust="spacing" textLength="83.549" x="60.2425" y="144.9003">Stream WAL records</text></g><g class="message" data-entity-1="part2" data-entity-2="part2" id="msg2"><line style="stroke:#79C0FF;stroke-width:0.9705;" x1="161.5903" x2="181.9718" y1="167.1209" y2="167.1209"/><line style="stroke:#79C0FF;stroke-width:0.9705;" x1="181.9718" x2="181.9718" y1="167.1209" y2="173.4295"/><line style="stroke:#79C0FF;stroke-width:0.9705;" x1="162.0756" x2="181.9718" y1="173.4295" y2="173.4295"/><polygon fill="#79C0FF" points="166.9283,171.4884,162.0756,173.4295,166.9283,175.3706,164.9872,173.4295" style="stroke:#79C0FF;stroke-width:0.4853;"/><text fill="#C9D1D9" font-family="'Verdana'" font-size="8.7349" lengthAdjust="spacing" textLength="103.9012" x="164.9872" y="163.591">Write to *.partial WAL file</text></g><g class="message" data-entity-1="part2" data-entity-2="part2" id="msg3"><line style="stroke:#79C0FF;stroke-width:0.9705;" x1="161.5903" x2="181.9718" y1="204.0171" y2="204.0171"/><line style="stroke:#79C0FF;stroke-width:0.9705;" x1="181.9718" x2="181.9718" y1="204.0171" y2="210.3256"/><line style="stroke:#79C0FF;stroke-width:0.9705;" x1="162.0756" x2="181.9718" y1="210.3256" y2="210.3256"/><polygon fill="#79C0FF" points="166.9283,208.3845,162.0756,210.3256,166.9283,212.2667,164.9872,210.3256" style="stroke:#79C0FF;stroke-width:0.4853;"/><text fill="#C9D1D9" font-family="'Verdana'" font-size="8.7349" lengthAdjust="spacing" textLength="106.9759" x="164.9872" y="188.5903">When segment completes</text><text fill="#C9D1D9" font-family="'Verdana'" font-size="8.7349" lengthAdjust="spacing" textLength="97.979" x="164.9872" y="200.4872">rename to final WAL file</text></g><rect fill="#161B22" height="1.4558" rx="1.4558" ry="1.4558" style="stroke:#161B22;stroke-width:0.4853;" width="907.6359" x="0" y="226.4648"/><line style="stroke:#6E7681;stroke-width:0.2426;" x1="0" x2="907.6359" y1="226.4648" y2="226.4648"/><line style="stroke:#6E7681;stroke-width:0.2426;" x1="0" x2="907.6359" y1="227.9206" y2="227.9206"/><rect fill="#161B22" height="15.7791" rx="1.4558" ry="1.4558" style="stroke:#6E7681;stroke-width:0.4853;" width="100.4403" x="403.5978" y="219.0605"/><text fill="#C9D1D9" font-family="'Verdana'" font-size="8.7349" font-weight="bold" lengthAdjust="spacing" textLength="91.3754" x="406.5094" y="230.3392">Archive Control Loop</text><g class="message" data-entity-1="part3" data-entity-2="part3" id="msg4"><line style="stroke:#79C0FF;stroke-width:0.9705;" x1="275.36" x2="295.7415" y1="254.5008" y2="254.5008"/><line style="stroke:#79C0FF;stroke-width:0.9705;" x1="295.7415" x2="295.7415" y1="254.5008" y2="260.8094"/><line style="stroke:#79C0FF;stroke-width:0.9705;" x1="275.8453" x2="295.7415" y1="260.8094" y2="260.8094"/><polygon fill="#79C0FF" points="280.698,258.8683,275.8453,260.8094,280.698,262.7505,278.7569,260.8094" style="stroke:#79C0FF;stroke-width:0.4853;"/><text fill="#C9D1D9" font-family="'Verdana'" font-size="8.7349" lengthAdjust="spacing" textLength="33.4371" x="278.7569" y="250.971">Run(ctx)</text></g><path d="M277.5763,268.5738 L277.5763,305.9398 A1.4558,1.4558 0 0 0 279.0321,307.3956 L492.5523,307.3956 A1.4558,1.4558 0 0 0 494.0081,305.9398 L494.0081,271.9707 L489.1554,267.118 L279.0321,267.118 A1.4558,1.4558 0 0 0 277.5763,268.5738" fill="#161B22" style="stroke:#768390;stroke-width:0.9705;"/><path d="M489.1554,267.118 L489.1554,271.2428 A0.7279,0.7279 0 0 0 489.8833,271.9707 L494.0081,271.9707 L489.1554,267.118" fill="#161B22" style="stroke:#768390;stroke-width:0.9705;"/><text fill="#C9D1D9" font-family="'Verdana'" font-size="8.7349" lengthAdjust="spacing" textLength="137.6702" x="280.4879" y="278.8819">Periodically triggers upload work.</text><text fill="#C9D1D9" font-family="'Verdana'" font-size="8.7349" lengthAdjust="spacing" textLength="175.1253" x="280.4879" y="290.7788">Upload errors are logged and retried later.</text><text fill="#C9D1D9" font-family="'Verdana'" font-size="8.7349" lengthAdjust="spacing" textLength="206.5359" x="280.4879" y="302.6757">Upload logic must not interfere with WAL receiver.</text><g class="message" data-entity-1="part3" data-entity-2="part4" id="msg5"><polygon fill="#79C0FF" points="384.7089,334.852,389.5616,336.7931,384.7089,338.7342,386.65,336.7931" style="stroke:#79C0FF;stroke-width:0.4853;"/><line style="stroke:#79C0FF;stroke-width:0.9705;stroke-dasharray:0.9705,0.9705;" x1="275.36" x2="387.6205" y1="336.7931" y2="336.7931"/><text fill="#C9D1D9" font-family="'Verdana'" font-size="8.7349" lengthAdjust="spacing" textLength="75.0325" x="278.7569" y="321.3664">Every SyncInterval</text><text fill="#C9D1D9" font-family="'Verdana'" font-size="8.7349" lengthAdjust="spacing" textLength="103.5256" x="278.7569" y="333.2632">trigger performUploads()</text></g><rect fill="#161B22" height="1.4558" rx="1.4558" ry="1.4558" style="stroke:#161B22;stroke-width:0.4853;" width="907.6359" x="0" y="352.9323"/><line style="stroke:#6E7681;stroke-width:0.2426;" x1="0" x2="907.6359" y1="352.9323" y2="352.9323"/><line style="stroke:#6E7681;stroke-width:0.2426;" x1="0" x2="907.6359" y1="354.3881" y2="354.3881"/><rect fill="#161B22" height="15.7791" rx="1.4558" ry="1.4558" style="stroke:#6E7681;stroke-width:0.4853;" width="61.7536" x="422.9411" y="345.528"/><text fill="#C9D1D9" font-family="'Verdana'" font-size="8.7349" font-weight="bold" lengthAdjust="spacing" textLength="52.6887" x="425.8528" y="356.8067">WAL Upload</text><path d="M392.586,370.042 L392.586,407.4081 A1.4558,1.4558 0 0 0 394.0419,408.8639 L601.7388,408.8639 A1.4558,1.4558 0 0 0 603.1946,407.4081 L603.1946,373.4389 L598.3419,368.5862 L394.0419,368.5862 A1.4558,1.4558 0 0 0 392.586,370.042" fill="#161B22" style="stroke:#768390;stroke-width:0.9705;"/><path d="M598.3419,368.5862 L598.3419,372.711 A0.7279,0.7279 0 0 0 599.0698,373.4389 L603.1946,373.4389 L598.3419,368.5862" fill="#161B22" style="stroke:#768390;stroke-width:0.9705;"/><text fill="#C9D1D9" font-family="'Verdana'" font-size="8.7349" lengthAdjust="spacing" textLength="132.3332" x="395.4977" y="380.3501">Scans completed local WAL files.</text><text fill="#C9D1D9" font-family="'Verdana'" font-size="8.7349" lengthAdjust="spacing" textLength="137.4256" x="395.4977" y="392.247">Skips incomplete/temporary files.</text><text fill="#C9D1D9" font-family="'Verdana'" font-size="8.7349" lengthAdjust="spacing" textLength="200.6311" x="395.4977" y="404.1439">Uploads WALs into WAL archive paths in storage.</text><g class="message" data-entity-1="part4" data-entity-2="part2" id="msg6"><polygon fill="#79C0FF" points="166.9283,424.4234,162.0756,426.3645,166.9283,428.3056,164.9872,426.3645" style="stroke:#79C0FF;stroke-width:0.4853;"/><line style="stroke:#79C0FF;stroke-width:0.9705;" x1="164.0167" x2="390.0469" y1="426.3645" y2="426.3645"/><text fill="#C9D1D9" font-family="'Verdana'" font-size="8.7349" lengthAdjust="spacing" textLength="100.119" x="169.8399" y="422.8346">Scan local WAL directory</text></g><g class="message" data-entity-1="part4" data-entity-2="part8" id="msg7"><polygon fill="#79C0FF" points="828.9676,443.1141,833.8204,445.0552,828.9676,446.9963,830.9087,445.0552" style="stroke:#79C0FF;stroke-width:0.4853;"/><line style="stroke:#79C0FF;stroke-width:0.9705;" x1="390.5322" x2="831.8793" y1="445.0552" y2="445.0552"/><text fill="#C9D1D9" font-family="'Verdana'" font-size="8.7349" lengthAdjust="spacing" textLength="161.8134" x="393.9291" y="441.5253">Compress -&gt; Encrypt -&gt; Upload WAL file</text></g><g class="message" data-entity-1="part4" data-entity-2="part2" id="msg8"><polygon fill="#79C0FF" points="166.9283,461.8048,162.0756,463.7459,166.9283,465.687,164.9872,463.7459" style="stroke:#79C0FF;stroke-width:0.4853;"/><line style="stroke:#79C0FF;stroke-width:0.9705;" x1="164.0167" x2="390.0469" y1="463.7459" y2="463.7459"/><text fill="#C9D1D9" font-family="'Verdana'" font-size="8.7349" lengthAdjust="spacing" textLength="181.231" x="169.8399" y="460.216">On success -&gt; delete local uploaded WAL file</text></g><rect fill="#161B22" height="1.4558" rx="1.4558" ry="1.4558" style="stroke:#161B22;stroke-width:0.4853;" width="907.6359" x="0" y="479.8851"/><line style="stroke:#6E7681;stroke-width:0.2426;" x1="0" x2="907.6359" y1="479.8851" y2="479.8851"/><line style="stroke:#6E7681;stroke-width:0.2426;" x1="0" x2="907.6359" y1="481.3409" y2="481.3409"/><rect fill="#161B22" height="15.7791" rx="1.4558" ry="1.4558" style="stroke:#6E7681;stroke-width:0.4853;" width="187.2561" x="360.1899" y="472.4808"/><text fill="#C9D1D9" font-family="'Verdana'" font-size="8.7349" font-weight="bold" lengthAdjust="spacing" textLength="178.1912" x="363.1015" y="483.7595">Basebackup Scheduling / Manual Trigger</text><g class="message" data-entity-1="part5" data-entity-2="part5" id="msg9"><line style="stroke:#79C0FF;stroke-width:0.9705;" x1="498.7796" x2="519.1611" y1="507.9211" y2="507.9211"/><line style="stroke:#79C0FF;stroke-width:0.9705;" x1="519.1611" x2="519.1611" y1="507.9211" y2="514.2297"/><line style="stroke:#79C0FF;stroke-width:0.9705;" x1="499.2649" x2="519.1611" y1="514.2297" y2="514.2297"/><polygon fill="#79C0FF" points="504.1176,512.2886,499.2649,514.2297,504.1176,516.1708,502.1765,514.2297" style="stroke:#79C0FF;stroke-width:0.4853;"/><text fill="#C9D1D9" font-family="'Verdana'" font-size="8.7349" lengthAdjust="spacing" textLength="33.4371" x="502.1765" y="504.3913">Run(ctx)</text></g><path d="M500.802,521.9941 L500.802,571.4919 A1.4558,1.4558 0 0 0 502.2578,572.9477 L761.3937,572.9477 A1.4558,1.4558 0 0 0 762.8495,571.4919 L762.8495,525.391 L757.9968,520.5382 L502.2578,520.5382 A1.4558,1.4558 0 0 0 500.802,521.9941" fill="#161B22" style="stroke:#768390;stroke-width:0.9705;"/><path d="M757.9968,520.5382 L757.9968,524.6631 A0.7279,0.7279 0 0 0 758.7247,525.391 L762.8495,525.391 L757.9968,520.5382" fill="#161B22" style="stroke:#768390;stroke-width:0.9705;"/><text fill="#C9D1D9" font-family="'Verdana'" font-size="8.7349" lengthAdjust="spacing" textLength="166.1284" x="503.7136" y="532.3022">Responsible for scheduled basebackups.</text><text fill="#C9D1D9" font-family="'Verdana'" font-size="8.7349" lengthAdjust="spacing" textLength="215.2882" x="503.7136" y="544.1991">Manual backups may also be triggered via HTTP API.</text><text fill="#C9D1D9" font-family="'Verdana'" font-size="8.7349" lengthAdjust="spacing" textLength="199.976" x="503.7136" y="556.0959">Basebackup failures must not stop WAL receiver.</text><text fill="#C9D1D9" font-family="'Verdana'" font-size="8.7349" lengthAdjust="spacing" textLength="252.2716" x="503.7136" y="567.9928">Stores basebackups under backup paths in the same storage.</text><g class="message" data-entity-1="part5" data-entity-2="part1" id="msg10"><polygon fill="#79C0FF" points="57.3309,600.1692,52.4782,602.1103,57.3309,604.0514,55.3898,602.1103" style="stroke:#79C0FF;stroke-width:0.4853;"/><line style="stroke:#79C0FF;stroke-width:0.9705;" x1="54.4193" x2="498.2944" y1="602.1103" y2="602.1103"/><text fill="#C9D1D9" font-family="'Verdana'" font-size="8.7349" lengthAdjust="spacing" textLength="71.8967" x="60.2425" y="586.6835">On cron schedule</text><text fill="#C9D1D9" font-family="'Verdana'" font-size="8.7349" lengthAdjust="spacing" textLength="77.2599" x="60.2425" y="598.5804">create basebackup</text></g><g class="message" data-entity-1="part5" data-entity-2="part8" id="msg11"><polygon fill="#79C0FF" points="828.9676,618.8599,833.8204,620.801,828.9676,622.7421,830.9087,620.801" style="stroke:#79C0FF;stroke-width:0.4853;"/><line style="stroke:#79C0FF;stroke-width:0.9705;" x1="498.7796" x2="831.8793" y1="620.801" y2="620.801"/><text fill="#C9D1D9" font-family="'Verdana'" font-size="8.7349" lengthAdjust="spacing" textLength="150.1872" x="502.1765" y="617.2711">Store/upload backup files + manifest</text></g><g class="message" data-entity-1="part7" data-entity-2="part5" id="msg12"><polygon fill="#79C0FF" points="504.1176,649.4475,499.2649,651.3886,504.1176,653.3297,502.1765,651.3886" style="stroke:#79C0FF;stroke-width:0.4853;"/><line style="stroke:#79C0FF;stroke-width:0.9705;stroke-dasharray:0.9705,0.9705;" x1="501.206" x2="717.4421" y1="651.3886" y2="651.3886"/><text fill="#C9D1D9" font-family="'Verdana'" font-size="8.7349" lengthAdjust="spacing" textLength="105.0192" x="507.0293" y="635.9618">POST /api/v1/basebackup</text><text fill="#C9D1D9" font-family="'Verdana'" font-size="8.7349" lengthAdjust="spacing" textLength="102.9928" x="507.0293" y="647.8587">(optional manual trigger)</text></g><rect fill="#161B22" height="1.4558" rx="1.4558" ry="1.4558" style="stroke:#161B22;stroke-width:0.4853;" width="907.6359" x="0" y="667.5278"/><line style="stroke:#6E7681;stroke-width:0.2426;" x1="0" x2="907.6359" y1="667.5278" y2="667.5278"/><line style="stroke:#6E7681;stroke-width:0.2426;" x1="0" x2="907.6359" y1="668.9836" y2="668.9836"/><rect fill="#161B22" height="15.7791" rx="1.4558" ry="1.4558" style="stroke:#6E7681;stroke-width:0.4853;" width="166.537" x="370.5494" y="660.1235"/><text fill="#C9D1D9" font-family="'Verdana'" font-size="8.7349" font-weight="bold" lengthAdjust="spacing" textLength="157.4721" x="373.4611" y="671.4022">Unified Recovery-Window Retention</text><g class="message" data-entity-1="part6" data-entity-2="part6" id="msg13"><line style="stroke:#79C0FF;stroke-width:0.9705;" x1="617.3124" x2="637.6939" y1="695.5638" y2="695.5638"/><line style="stroke:#79C0FF;stroke-width:0.9705;" x1="637.6939" x2="637.6939" y1="695.5638" y2="701.8724"/><line style="stroke:#79C0FF;stroke-width:0.9705;" x1="617.7977" x2="637.6939" y1="701.8724" y2="701.8724"/><polygon fill="#79C0FF" points="622.6504,699.9313,617.7977,701.8724,622.6504,703.8135,620.7093,701.8724" style="stroke:#79C0FF;stroke-width:0.4853;"/><text fill="#C9D1D9" font-family="'Verdana'" font-size="8.7349" lengthAdjust="spacing" textLength="33.4371" x="620.7093" y="692.034">Run(ctx)</text></g><path d="M619.6939,709.6367 L619.6939,747.0028 A1.4558,1.4558 0 0 0 621.1497,748.4586 L803.6125,748.4586 A1.4558,1.4558 0 0 0 805.0683,747.0028 L805.0683,713.0337 L800.2156,708.1809 L621.1497,708.1809 A1.4558,1.4558 0 0 0 619.6939,709.6367" fill="#161B22" style="stroke:#768390;stroke-width:0.9705;"/><path d="M800.2156,708.1809 L800.2156,712.3057 A0.7279,0.7279 0 0 0 800.9435,713.0337 L805.0683,713.0337 L800.2156,708.1809" fill="#161B22" style="stroke:#768390;stroke-width:0.9705;"/><text fill="#C9D1D9" font-family="'Verdana'" font-size="8.7349" lengthAdjust="spacing" textLength="175.5097" x="622.6056" y="719.9449">recovery_window policy: anchor on newest</text><text fill="#C9D1D9" font-family="'Verdana'" font-size="8.7349" lengthAdjust="spacing" textLength="165.9799" x="622.6056" y="731.8417">backup within window, then prune older</text><text fill="#C9D1D9" font-family="'Verdana'" font-size="8.7349" lengthAdjust="spacing" textLength="160.8176" x="622.6056" y="743.7386">backups and WALs before anchor start.</text><g class="message" data-entity-1="part6" data-entity-2="part8" id="msg14"><polygon fill="#79C0FF" points="828.9676,764.0181,833.8204,765.9592,828.9676,767.9003,830.9087,765.9592" style="stroke:#79C0FF;stroke-width:0.4853;"/><line style="stroke:#79C0FF;stroke-width:0.9705;" x1="617.3124" x2="831.8793" y1="765.9592" y2="765.9592"/><text fill="#C9D1D9" font-family="'Verdana'" font-size="8.7349" lengthAdjust="spacing" textLength="100.2326" x="620.7093" y="762.4293">List backups + manifests</text></g><g class="message" data-entity-1="part6" data-entity-2="part6" id="msg15"><line style="stroke:#79C0FF;stroke-width:0.9705;" x1="617.3124" x2="637.6939" y1="784.6499" y2="784.6499"/><line style="stroke:#79C0FF;stroke-width:0.9705;" x1="637.6939" x2="637.6939" y1="784.6499" y2="790.9585"/><line style="stroke:#79C0FF;stroke-width:0.9705;" x1="617.7977" x2="637.6939" y1="790.9585" y2="790.9585"/><polygon fill="#79C0FF" points="622.6504,789.0174,617.7977,790.9585,622.6504,792.8996,620.7093,790.9585" style="stroke:#79C0FF;stroke-width:0.4853;"/><text fill="#C9D1D9" font-family="'Verdana'" font-size="8.7349" lengthAdjust="spacing" textLength="93.8212" x="620.7093" y="781.12">Choose anchor backup</text></g><g class="message" data-entity-1="part6" data-entity-2="part8" id="msg16"><polygon fill="#79C0FF" points="828.9676,807.7081,833.8204,809.6492,828.9676,811.5903,830.9087,809.6492" style="stroke:#79C0FF;stroke-width:0.4853;"/><line style="stroke:#79C0FF;stroke-width:0.9705;" x1="617.3124" x2="831.8793" y1="809.6492" y2="809.6492"/><text fill="#C9D1D9" font-family="'Verdana'" font-size="8.7349" lengthAdjust="spacing" textLength="138.8057" x="620.7093" y="806.1193">Delete backups older than anchor</text></g><g class="message" data-entity-1="part6" data-entity-2="part8" id="msg17"><polygon fill="#79C0FF" points="828.9676,826.3988,833.8204,828.3399,828.9676,830.281,830.9087,828.3399" style="stroke:#79C0FF;stroke-width:0.4853;"/><line style="stroke:#79C0FF;stroke-width:0.9705;" x1="617.3124" x2="831.8793" y1="828.3399" y2="828.3399"/><text fill="#C9D1D9" font-family="'Verdana'" font-size="8.7349" lengthAdjust="spacing" textLength="153.5677" x="620.7093" y="824.81">Delete WALs before anchor start WAL</text></g><rect fill="#161B22" height="1.4558" rx="1.4558" ry="1.4558" style="stroke:#161B22;stroke-width:0.4853;" width="907.6359" x="0" y="844.4791"/><line style="stroke:#6E7681;stroke-width:0.2426;" x1="0" x2="907.6359" y1="844.4791" y2="844.4791"/><line style="stroke:#6E7681;stroke-width:0.2426;" x1="0" x2="907.6359" y1="845.9349" y2="845.9349"/><rect fill="#161B22" height="15.7791" rx="1.4558" ry="1.4558" style="stroke:#6E7681;stroke-width:0.4853;" width="59.8756" x="423.8801" y="837.0748"/><text fill="#C9D1D9" font-family="'Verdana'" font-size="8.7349" font-weight="bold" lengthAdjust="spacing" textLength="50.8107" x="426.7918" y="848.3535">API / Status</text><g class="message" data-entity-1="part7" data-entity-2="part5" id="msg18"><polygon fill="#79C0FF" points="504.1176,870.574,499.2649,872.5151,504.1176,874.4562,502.1765,872.5151" style="stroke:#79C0FF;stroke-width:0.4853;"/><line style="stroke:#79C0FF;stroke-width:0.9705;" x1="501.206" x2="717.4421" y1="872.5151" y2="872.5151"/><text fill="#C9D1D9" font-family="'Verdana'" font-size="8.7349" lengthAdjust="spacing" textLength="127.5552" x="507.0293" y="868.9853">GET /api/v1/basebackup/status</text></g><g class="message" data-entity-1="part7" data-entity-2="part2" id="msg19"><polygon fill="#79C0FF" points="166.9283,889.2647,162.0756,891.2058,166.9283,893.1469,164.9872,891.2058" style="stroke:#79C0FF;stroke-width:0.4853;"/><line style="stroke:#79C0FF;stroke-width:0.9705;" x1="164.0167" x2="717.4421" y1="891.2058" y2="891.2058"/><text fill="#C9D1D9" font-family="'Verdana'" font-size="8.7349" lengthAdjust="spacing" textLength="51.7278" x="169.8399" y="887.676">GET /healthz</text></g><g class="message" data-entity-1="part7" data-entity-2="part2" id="msg20"><polygon fill="#79C0FF" points="166.9283,907.9554,162.0756,909.8965,166.9283,911.8376,164.9872,909.8965" style="stroke:#79C0FF;stroke-width:0.4853;"/><line style="stroke:#79C0FF;stroke-width:0.9705;" x1="164.0167" x2="717.4421" y1="909.8965" y2="909.8965"/><text fill="#C9D1D9" font-family="'Verdana'" font-size="8.7349" lengthAdjust="spacing" textLength="75.0237" x="169.8399" y="906.3667">GET /api/v1/status</text></g><text fill="#8B949E" font-family="'Verdana'" font-size="7.2791" lengthAdjust="spacing" textLength="45.8004" x="861.3502" y="10.2078">stream mode</text><text fill="#8B949E" font-family="'Verdana'" font-size="7.2791" lengthAdjust="spacing" textLength="159.6535" x="373.7485" y="974.4703">Cloud-Native PostgreSQL WAL Receiver - pgrwl</text><?plantuml-src nLZTRjis5BxNKnmu5sssDewJrOq3P42IDca1j_NYTBafCD0YRNEHIOsauhZ5W3t4dd1FiaDAb2XPIb9Wm7mJc_hEx_VnaCepkEJcNJO3IjGjf2HXnZ2GTqmfJfcEz2qNAL5a1JCItowKp0GzbubKK7nszkbWC7WT02cRaomn5rAOZsJ5FB3tArEK2D9hXqxvrn8wE0emUaceN7EnWDfdJXBD0fZBB9PAC1N2XW7aJDvF2ALDLmVx0MP2bE4nJuam8RQ6ePmiyE-PL9IfgXaxX_k7mqFQ1RnUylXMCAtX88gUXO72BgVLCdoB0CxQkrvsVp0Sp0uEBB2HJHFuUdXqEDf7e6rs9mo1RCZe_121GORD2bnBeZzj7M-88JEYcUKfhGc6-YV_RHsZU7y-Vq8Tv1KT8j0bYSpNKjFiZuo9k4XDtZ-KdHTu3dmWkvrNHsJeKaFWGzdvr10vvdCsve9r-DqPCkHji0MiC-78220T6xLeCI8lyMdQNKgb5GViBcKd7j417NdWEqRGOnky4bKUkhFTbGwA7Ecc7Lon4eHkWmPbl-5tl0DLZ-s17HsgMAa1jqY10DBLHDz29zDJfUGwr2cn2qwa3oZz-xP5ITbsklMfcAVqKPhQpX7u-tyQJ6NcNUskPtxDJSAW3qid3VmobvYx2cen3l7jUsRYOyMKocWUQOtFuVuJMXWC7XlrAaSsJpXxnZsf9rNX7HjrvsWs-cd4Me6rMWQl0io5Q-iJd5N0fZDxZEH7PHJbfFGcbrStO_ZdhxzXQXH3wm-ICdX-Spf-WNtJpDv6ilG5N373XE5IxFQYd60uJsH6NtuaXjync4Xj5efDVna3sY8yPhYiu2Ma2xLEea8TEW-omY2HZl4M12jo3wEZVPGFNonD5CtaFMPLUPioXNvwo18P30-Ea8Bol0jWFI0Q9fSH4nJGWtVZYWiAwmLaXpU0NfXphw8JdVhLfiMfYfUsy6cMOePSozmEBOedrOEsO9_JHDgEr8FvrQP5nKGj7bgSkTNkM2Lly07lX0iVq1LMF6cQlBk-di3fv7slBcrRsUHzeyDJ8nLwRQVdq-nt5XieC3WPfXVekGzZYSn_4LPaE7dpDlu8ix96lUjAA-ogY2SdfRPILzB9ILG9xMValvxniQVUMYc6brQgQmRbzzBWHd6SkqR23tkk9oHnndEUiCSibqpWVMUnmgP2B5Sftl2P_Y8K4_PoZYxdN8JkR3bUHEUuMPLCi3CojLLjISZ6t5uyXgjCF8_D_MxapWjbjn38UQi49qnnIJcsFjc0GIYAGKFc50ThgMxt49GB4F2jHE93eXWa4e4K29AW69hXzuJWzW_G2E4nh39jxB45NE3ZEKFRDJTBttpNhZr7fisrhKIiqMy0BEqjuZSmtOZulNLuPoLJf0reCvTgbQFryzrI6qL6sC9wGuADDOs9q2L3Dliue4NRkgQtFDLOXmVr3LkbA4RCfyGKiQsXXIA_ePnJOfPs6GUU4t5GU5bYAADZbrQG2-NOCxJTrF1-Ao7-77DJzWJ2vRSYLflKGDd0IcKTqJvXPbaS5_QKsIgBwBaY6AqhDPn0yPBHBB6lR7qxLJ8qkYw8mSOt9v8DiBNMgToMUNR5T2g5vZCyBP1rq7byp30O6PQI8fTY1K-M3U3BguGPytf7cpjEm4-uFNSvA0kR4vvasDDAoiXUsX0mE18G50G7l31WyOMRadkpnBSrk_ctHT3M93--73knmldcA_s2_3BST47CLWzU7iTvZlrYS_loh7HnqAw8m3SORIBiWDjqMwvS4fDFqsleavJtxmRzAZ3ERUccBtPwbJUyQ6w-2p-ZSpiaK6pslnkRbpTSKBnSLmUHczh-XvEb_z6fYl2iKeNZtzQvurGcFDuSuuIAbvWxkX5iRSi3NxWTGqX7ZdzXQH6Ggamma4a-4poFTigv3JrZg3JcVMg3Pq70NYtzSazY-cEEml7EgaxhxeBFbrBgCb31RQV_D_b6zH5S-bWFJexSmQEMNSNP1_c9X9h0WzeGasbt4bcDj6xWoxTjykXhP-hjckUajyFhO6AMNn-35UuBd_y2?></g></svg>